<?xml version="1.0" encoding="UTF-8"?><svg id="Layer_1" xmlns="http://www.w3.org/2000/svg" xmlns:xlink="http://www.w3.org/1999/xlink" viewBox="0 0 500 500"><defs><style>.cls-1{fill:#050400;}.cls-1,.cls-2,.cls-3{opacity:.1;}.cls-1,.cls-4,.cls-5,.cls-6,.cls-7,.cls-8,.cls-9,.cls-10,.cls-11,.cls-12,.cls-13,.cls-14,.cls-15,.cls-16,.cls-17,.cls-18,.cls-19,.cls-3{stroke-width:0px;}.cls-1,.cls-4,.cls-5,.cls-6,.cls-20,.cls-19,.cls-3{isolation:isolate;}.cls-4,.cls-21{opacity:.2;}.cls-5{opacity:.4;}.cls-5,.cls-8{fill:#263238;}.cls-6{opacity:.3;}.cls-9{fill:#455a64;}.cls-10{fill:#37474f;}.cls-11{fill:#c7c7c7;}.cls-12{fill:#dbdbdb;}.cls-13{fill:#a6a6a6;}.cls-14{fill:#fff;}.cls-15{fill:#ed1c24;}.cls-16{fill:#ff99ba;}.cls-17{fill:#ffc4c0;}.cls-18,.cls-19{fill:#ebebeb;}.cls-19{opacity:.5;}</style></defs><g id="freepik--background-complete--inject-7"><circle class="cls-18" cx="424.73" cy="72.12" r="30.1"/><circle class="cls-12" cx="426.07" cy="72.73" r="28.8" transform="translate(73.36 322.58) rotate(-45)"/><circle class="cls-14" cx="426.1" cy="72.8" r="26.9"/><path class="cls-19" d="m452.5,67c-12.3,7.4-32.4,19.6-43.7,26.3-3.2-2.7-5.7-6.1-7.4-9.9l37.3-34.5c7,3.7,12,10.3,13.8,18.1Z"/><path class="cls-19" d="m453,73.7c-.1,3-.7,6-1.8,8.8l-33.6,15.9c-1.5-.5-2.9-1.1-4.2-1.8,10.2-6,28.7-16.6,39.6-22.9Z"/><rect class="cls-11" x="425.9" y="47.8" width=".5" height="4.1"/><rect class="cls-11" x="414.38" y="50.79" width=".5" height="4.1" transform="translate(29.13 214.4) rotate(-30)"/><rect class="cls-11" x="405.98" y="59.19" width=".5" height="4.1" transform="translate(150.08 382.43) rotate(-60)"/><rect class="cls-11" x="401.1" y="72.5" width="4.1" height=".5"/><rect class="cls-11" x="404.2" y="83.98" width="4.1" height=".5" transform="translate(12.34 214.5) rotate(-30.01)"/><rect class="cls-11" x="412.61" y="92.37" width="4.1" height=".5" transform="translate(127.29 405.58) rotate(-60.03)"/><rect class="cls-11" x="425.9" y="93.7" width=".5" height="4.1"/><rect class="cls-11" x="437.32" y="90.61" width=".5" height="4.1" transform="translate(12.29 231.2) rotate(-30)"/><rect class="cls-11" x="446.06" y="80.43" width=".5" height="4.1" transform="translate(152.4 428.33) rotate(-60.11)"/><rect class="cls-11" x="447" y="72.5" width="4.1" height=".5"/><rect class="cls-11" x="443.99" y="60.98" width="4.1" height=".5" transform="translate(29.2 231.36) rotate(-30.02)"/><rect class="cls-11" x="435.48" y="52.6" width="4.1" height=".5" transform="translate(173.2 405.49) rotate(-60.03)"/><polygon class="cls-11" points="426.5 49.6 427.4 74.6 424.8 74.5 425.8 49.6 426.5 49.6"/><polygon class="cls-13" points="442 64 425.3 74.8 424 72.5 441.7 63.4 442 64"/><path class="cls-11" d="m427,72.8c-.1.5-.5.8-1,.8-.4,0-.7-.4-.8-.8-.1-.5.3-.9.8-1s.9.3,1,.8c0,0,0,.1,0,.2Z"/><path class="cls-18" d="m448,156.2c-10.1,6.1-23.3,2.8-29.3-7.3-6.1-10.1-2.8-23.3,7.3-29.3s23.3-2.8,29.3,7.3c1.2,1.9,2,4,2.5,6.2,2.2,8.9-1.8,18.3-9.8,23.1Z"/><path class="cls-14" d="m443.5,135.5c0,3.6-3,6.5-6.6,6.4s-6.5-3-6.4-6.6c0-3.6,3-6.5,6.6-6.4h0c3.6,0,6.4,3,6.4,6.6Z"/><path class="cls-14" d="m448,153.5v2.7c-6.9,4.2-15.7,4.1-22.5-.3v-2.7c.1-6.2,5.2-11.2,11.4-11.1,6.2.1,11.2,5.2,11.1,11.4h0Z"/><path class="cls-18" d="m319.3,258.9c-6.6,4-15.2,1.8-19.2-4.8-4-6.6-1.8-15.2,4.8-19.2s15.2-1.8,19.2,4.8c.8,1.3,1.3,2.6,1.6,4.1,1.4,5.8-1.2,12-6.4,15.1Z"/><path class="cls-14" d="m316.4,245.3c0,2.4-2,4.3-4.3,4.2-2.4,0-4.3-2-4.2-4.3,0-2.4,2-4.3,4.3-4.2h0c2.3.1,4.2,2,4.2,4.3h0Z"/><path class="cls-14" d="m319.4,257.1v1.8c-4.5,2.7-10.3,2.7-14.7-.2v-1.7c-.1-4.1,3.1-7.4,7.2-7.5s7.4,3.1,7.5,7.2v.4h0Z"/><rect class="cls-12" x="37.8" y="49" width="117.3" height="179.8"/><rect class="cls-14" x="44.2" y="56.2" width="49.5" height="80"/><rect class="cls-14" x="99.2" y="56.2" width="49.5" height="80"/><rect class="cls-14" x="44.2" y="141.6" width="49.5" height="80"/><rect class="cls-14" x="99.2" y="141.6" width="49.5" height="80"/><rect class="cls-18" x="37.8" y="49" width="27.8" height="257.2"/><polygon class="cls-14" points="60.3 61.2 60.5 89 60.6 116.9 60.7 172.5 60.6 228.1 60.5 255.9 60.3 283.7 60.1 255.9 60 228.1 59.9 172.5 60 116.9 60.1 89 60.3 61.2"/><polygon class="cls-14" points="47.5 67.7 47.8 92.5 47.9 117.3 48 167 47.9 216.7 47.8 241.5 47.5 266.4 47.3 241.5 47.2 216.7 47.1 167 47.2 117.3 47.3 92.5 47.5 67.7"/><polygon class="cls-14" points="53.9 73.5 54.1 102.6 54.2 131.7 54.4 189.9 54.2 248 54.1 277.1 53.9 306.2 53.7 277.1 53.6 248 53.5 189.9 53.6 131.7 53.7 102.6 53.9 73.5"/><polygon class="cls-14" points="42.8 62.7 43 93.1 43.1 123.6 43.2 184.4 43.1 245.3 43 275.8 42.8 306.2 42.6 275.8 42.5 245.3 42.4 184.4 42.5 123.6 42.6 93.1 42.8 62.7"/><rect class="cls-18" x="127.3" y="49" width="27.8" height="257.2"/><polygon class="cls-14" points="132.6 61.2 132.8 89 132.8 116.9 133 172.5 132.8 228.1 132.8 255.9 132.6 283.7 132.3 255.9 132.3 228.1 132.1 172.5 132.3 116.9 132.3 89 132.6 61.2"/><polygon class="cls-14" points="145.3 67.7 145.5 92.5 145.6 117.3 145.7 167 145.6 216.7 145.5 241.5 145.3 266.4 145.1 241.5 145 216.7 144.9 167 145 117.3 145.1 92.5 145.3 67.7"/><polygon class="cls-14" points="138.9 73.5 139.1 102.6 139.2 131.7 139.4 189.9 139.2 248 139.1 277.1 138.9 306.2 138.7 277.1 138.6 248 138.5 189.9 138.6 131.7 138.7 102.6 138.9 73.5"/><polygon class="cls-14" points="150.1 62.7 150.3 93.1 150.3 123.6 150.5 184.4 150.3 245.3 150.3 275.8 150.1 306.2 149.8 275.8 149.8 245.3 149.6 184.4 149.8 123.6 149.8 93.1 150.1 62.7"/></g><g id="freepik--Shadow--inject-7"><ellipse class="cls-18" cx="250" cy="435.3" rx="193.3" ry="23.2"/></g><g id="freepik--Floor--inject-7"><polygon class="cls-8" points="37.8 367.4 90.8 367.1 143.9 367 250 366.9 356.1 367 409.1 367.1 462.2 367.4 409.1 367.6 356.1 367.7 250 367.9 143.9 367.7 90.8 367.6 37.8 367.4"/></g><g id="freepik--Plant--inject-7"><path class="cls-8" d="m436.3,273.1c-3.5-3.5-8.1-7.6-13.5-6.1-5.1,1.4-7,7-7.9,11.6-1.2,6-2.1,12-3,18s-1.9,12.1-2.7,18.2c-.5,3.4-1,6.9-1.5,10.3l-.7,5.1c-.2,1.7-.5,3.4-.6,5.1,0,.5.8.6.9.1.7-2.9.9-5.8,1.4-8.7s.8-5.8,1.3-8.8c.9-5.8,1.7-11.6,2.6-17.4s1.8-11.6,2.7-17.4c.8-4.9,1.1-11,5.5-14.2,2.4-1.6,5.5-1.9,8.1-.8,2.9,1.1,5.1,3.1,7.4,5.2,0,0,.1-.1,0-.2Z"/><path class="cls-15" d="m431.5,269.6s-7.2-2.6-10.8,2.7.7,18.7,33.6,26.2c-1-10.3-3.6-20.3-7.9-29.7-7.1-15.4-19.7-9.6-14.9.8Z"/><path class="cls-8" d="m452.4,296.3c-.5-.9-1.1-1.8-1.7-2.7-.5-.9-1.1-1.7-1.7-2.5-.4-.6-.9-1.2-1.3-1.9,0-.1,0-.3.1-.5s.1-.6.1-.9c.1-.6.2-1.2.3-1.9s.2-1.2.3-1.8c.1-.7.2-1.3.4-1.9,0-.1-.1-.1-.1,0-.1.4-.2.7-.3,1.1-.1.3-.1.6-.2.8-.2.6-.3,1.2-.5,1.9s-.2,1.2-.3,1.8c-.1.3-.1.6-.1.8-.6-.8-1.2-1.7-1.8-2.5-1.7-2.3-3.6-4.5-5.5-6.7v-.1c.2-3.5.1-6.9.9-10.3,0-.1-.1-.1-.1,0-.9,3.2-1.3,6.5-1.2,9.8-.7-.8-1.4-1.5-2.1-2.3-1.6-1.7-3.2-3.4-4.9-5.1h-.1v.1c2.8,3,5.4,6.1,8,9.2-2,0-4,0-6,.2-2.2.2-4.5.5-6.7.8,0,0-.1.1,0,.1h0c2.2-.3,4.4-.5,6.7-.6,2.1-.1,4.3,0,6.4,0,1.4,1.7,2.8,3.5,4.1,5.2h-1.8c-1,0-2,.1-3,.2-2,.2-4.1.5-6.1.9h-.1v.1h.1c2-.2,4-.4,6.1-.5h4.4c.3,0,.6,0,.8-.1.9,1.1,1.8,2.3,2.6,3.5.7.9,1.4,1.8,2.1,2.8s1.3,2,2.1,2.9c0,.3.1.2.1.1Z"/><path class="cls-8" d="m434.6,277.1c-1.2-.2-2.3-.2-3.5-.2s-2.4,0-3.5.1h-.1v.1h.1c1.2-.1,2.4-.1,3.6-.1s2.3.2,3.4.1c0,0,.1,0,0,0Z"/><path class="cls-8" d="m445,279.7c.1-1.1.3-2.2.5-3.4,0-.1-.1-.1-.1,0-.2,1.1-.4,2.2-.5,3.3-.1.5-.2,1.1-.2,1.7-.1.5-.1,1-.1,1.6,0,.1.2.1.2,0,.1-.5.2-1,.2-1.6-.2-.5-.1-1,0-1.6Z"/><path class="cls-8" d="m442.8,267.3c-.3,1.1-.6,2.2-.8,3.3-.1.6-.2,1.1-.3,1.7-.1.6-.1,1.1-.1,1.7h.1c.1-.5.2-1,.3-1.6.1-.5.1-1.1.2-1.6.2-1.1.4-2.3.7-3.4,0-.2-.1-.2-.1-.1Z"/><path class="cls-8" d="m399.9,334c-.2-2.1-.4-4.1-.6-6.2-.4-4.1-.9-8.2-1.5-12.3-.5-4.1-1.1-8.1-1.7-12.2-.2-1.9-.7-3.7-1.2-5.5-.4-1.6-1.6-2.8-3.1-3.5-3.9-1.3-6.5,2.7-8,5.5,0,.1.1.1.1.1.9-1.3,3.5-5.1,6.5-4.9,2,.1,3.6,1.5,4.5,6.4,2.4,12.3,4.5,37.2,4.8,38.8.1.9.7.8.7-.1,0-2-.3-4.1-.5-6.1Z"/><path class="cls-15" d="m384.8,298.3s3.4-12-4.1-6c-12.5,10-12.9,31.6-12.9,31.6,0,0,22.2-12.9,24.9-21.3,4.1-12.7-7.9-4.3-7.9-4.3Z"/><path class="cls-8" d="m389,304.2c-1.7.4-3.5.6-5.2.8l-2.5.4c-.6.1-1.1.1-1.7.2,1.6-2.3,3.3-4.5,4.9-6.9.1-.1-.1-.2-.1-.1-1.3,1.4-2.5,2.8-3.7,4.3-.3-.9-.6-1.8-1-2.8s-.8-2.1-1-3.2c0-.1-.2,0-.1,0,.3,1.1.5,2.2.8,3.3s.6,2.1,1,3.1c-.8,1-1.6,2.1-2.4,3.2-.4-1.1-.9-2.1-1.2-3.2,0-.1-.2,0-.1,0,.4,1.2.6,2.5,1,3.7-.5.7-1,1.5-1.5,2.2-.9,1.4-1.7,2.8-2.6,4.2-.1.1-.2.2-.2.3-1.4,2.4-2.7,4.9-4,7.4,0,.1.1.2.1.1,1.3-2.4,2.8-4.8,4.3-7.2h0c.2-.1.5-.1.7-.1l.8-.2c.6-.1,1.1-.3,1.7-.4,1.1-.3,2.2-.5,3.4-.7.1,0,0-.2,0-.1-1.3.3-2.7.4-4,.6-.6.1-1.3.1-1.9.3h-.1c.8-1.2,1.6-2.4,2.4-3.6s1.6-2.3,2.5-3.5c.8-.1,1.5-.3,2.3-.5l2.6-.5c1.7-.3,3.4-.7,5.1-1-.2,0-.2-.2-.3-.1Z"/><path class="cls-8" d="m375.7,305.3c-.1-.3-.2-.6-.3-1-.2-.7-.4-1.3-.5-2,0-.1-.2,0-.1,0,.1.7.3,1.3.5,2,.1.7.3,1.4.6,2,0,.1.1.1.2.1s.1-.1.1-.2c-.3-.2-.4-.5-.5-.9Z"/><path class="cls-8" d="m391.3,301.4c-1,.2-2,.2-3,.3s-2,.2-3,.4v.1c1-.1,2-.1,3-.3s2-.3,3-.4c.1,0,.1-.1,0-.1Z"/><path class="cls-8" d="m416.2,318.9c-.4-8.8-1-17.6-1.8-26.3-.4-4.4-.9-8.7-1.5-13.1-.6-4.3-1.4-8.5-2.5-12.6-.8-3.2-2.2-6.3-4.2-8.9s-5.2-4-8.5-3.7c-3.9.5-7,2.9-9.6,5.5-3,3-5.8,6.2-8.5,9.4-.7.8-1.4,1.6-2.1,2.4-.1.1,0,.2.1.1,2.7-3.1,5.6-6.2,8.5-9.1,2.7-2.7,5.5-5.6,9.3-6.7,1.8-.6,3.6-.6,5.4-.1,1.4.4,2.7,1.3,3.7,2.3,2,2.3,3.5,5.1,4.2,8.1,2.4,8.1,3.2,16.6,4.1,24.9s1.5,17,1.9,25.5.8,17.1,1.6,25.7c.1,1.1.2,2.1.4,3.2.1.7,1.2.7,1.1,0-.8-9-1.2-17.8-1.6-26.6Z"/><path class="cls-15" d="m387.5,260.7s5-9.3-.9-12.3-25.8,19.2-31.6,51.6c0,0,32.1-14.2,43-28.3s-1.5-17.3-10.5-11Z"/><path class="cls-8" d="m392.2,268.2c-3.6,0-7.2-.3-10.8-.2.7-.8,1.4-1.6,2-2.3,1-1,1.9-2.1,2.8-3.3,0-.1-.1-.2-.1-.1-1,.8-1.9,1.7-2.7,2.7-.9,1-1.8,1.9-2.7,2.9-1.4,1.5-2.7,3-4.1,4.5v-6c0-2.5,0-5,.2-7.5,0-.1-.1-.1-.1,0-.2,2.5-.4,5-.5,7.5-.1,1.2-.1,2.5-.1,3.7v3l-.6.7c-2.9,3.3-5.6,6.7-8.3,10.1v-.6c0-.4-.1-.8-.1-1.1-.1-.8-.2-1.6-.3-2.5s-.2-1.5-.4-2.3-.4-1.8-.4-2.6v-.1h-.1v.1c.2.9.3,1.8.3,2.6.1.8.1,1.6.2,2.4s.1,1.6.2,2.4c0,.4.1.8.1,1.1,0,.2,0,.4.1.6,0,.2.1.3.2.5-.5.6-.9,1.2-1.4,1.8-1.8,2.4-3.6,4.8-5.4,7.3-.1.1,0,.2.1.1,1.7-2.2,3.4-4.4,5.2-6.5,1.3.1,2.7,0,4-.1s2.8,0,4.2,0c.1,0,.1-.1,0-.1h-8c1.5-1.9,3.1-3.8,4.7-5.6l1.7-2c.5.1,1.1.1,1.6,0h5.5c2.5,0,4.9-.1,7.4-.1.1,0,.1-.1,0-.1-2.5,0-4.9-.1-7.4-.2l-3.6-.1h-3l4-4.8s.1,0,.1-.1c1.3-1.5,2.6-3.1,4-4.6l.5-.6c3.7.1,7.5-.1,11.2-.1-.1-.2-.1-.4-.2-.4Z"/><path class="cls-8" d="m390.4,274.6h-1v.1h1v-.1h0Z"/><path class="cls-8" d="m388.4,274.6l-3.5-.1-1.7-.1c-.5-.1-1.1-.1-1.6,0-.1,0,0,.1,0,.1.5.1,1.1.1,1.6.1h5.2c.1.2.1,0,0,0Z"/><path class="cls-8" d="m378.3,285.5c-2.3-.4-4.7-.6-7.1-.6h0c2.4.2,4.7.4,7.1.7.1,0,.1-.1,0-.1Z"/><path class="cls-8" d="m368.7,275.1c0-.2,0-.4-.1-.6-.1-.5-.1-.9-.2-1.4-.1-.9-.3-1.8-.5-2.6,0-.1-.2-.1-.1,0,.1.9.2,1.8.3,2.7,0,.4.1.9.1,1.3s0,.9.2,1.3c0,.1.2.1.2.1l.1-.1v-.7Z"/><path class="cls-8" d="m415.9,248.8c-1.1-2.1-2.6-5-5.5-4.8-2.4.1-3.4,2.6-3.9,4.6-1.6,6.2-1.7,12.7-2,19-.6,13.4-1.2,26.8-1.3,40.1v11.1c0,3.8,0,7.6.3,11.4,0,.2.1.3.3.3s.3-.1.3-.3c0-3.2-.1-6.5-.1-9.7s0-6.3.1-9.5c.1-6.4.3-12.8.5-19.2.2-6.4.5-12.7.8-19.1.1-3.2.3-6.4.4-9.5s.3-6.1.6-9.2c.2-1.7.5-3.4.8-5.1.2-1.3.7-2.4,1.5-3.4,1.1-1.1,2.9-1.2,4.2-.3,1.3.9,2.4,2.2,3,3.7,0,0,.1.1.1,0l-.1-.1Z"/><path class="cls-15" d="m415.1,247.7s-2.4-8.3,2.9-4.2c8.7,6.9,9,22,9,22,0,0-15.4-9-17.3-14.9-2.9-8.7,5.4-2.9,5.4-2.9Z"/><path class="cls-8" d="m423.7,259.4c-.1-.2-.3-.5-.4-.7v-1.8c0-.7,0-1.4.1-2.1,0,0,0-.1-.1-.1,0,0-.1,0-.1.1,0,.7-.1,1.4-.1,2.1v1.5c-.6-.9-1.2-1.9-1.9-2.8l-.6-.8c-.1-.9-.1-1.8,0-2.7,0-1,0-1.9.1-2.9,0-.1-.1-.1-.1,0,0,1-.1,2-.1,3,0,.7-.1,1.4-.1,2.1-1.5-2-3.1-4-4.7-5.9-.1-.1-.2,0-.1.1,1,1.2,1.9,2.5,2.9,3.8-1.8-.4-3.7-.7-5.5-.9-.1,0-.1.1,0,.1,2,.3,3.9.8,5.8,1.2h0l2.2,3.1.9,1.3h-.1l-.6-.1c-.4,0-.9-.1-1.3-.1-.9-.1-1.8-.1-2.7-.2-.1,0-.1.1,0,.1.9,0,1.8.1,2.6.2l1.4.2.6.1h.2l1.5,2.2c.9,1.3,1.6,2.7,2.6,3.9h.1v-.1c-.8-1.3-1.6-2.6-2.5-3.9Z"/><path class="cls-8" d="m419.9,250v-1c0-.7,0-1.3.1-2,0,0,0-.1-.1-.1s-.1,0-.1.1c0,.7-.1,1.4-.1,2v2s.1.1.1,0h0v-.4l.1-.6Z"/><path class="cls-8" d="m418,253.4c-.6-.1-1.2-.1-1.7-.2s-1.3-.1-1.9-.2h-.1v.1h.1c1.2.1,2.4.3,3.6.3,0,.2,0,0,0,0Z"/><path class="cls-8" d="m422.8,253.5v2.3m.1,0v-2.2s-.2-.1-.1,0l.1,2.2Z"/><path class="cls-8" d="m416.3,293.2c-3.2-2.4-6.1-5.9-10.5-6.1-3.6-.1-6.1,2.6-7.6,5.6-.7,1.6-1.3,3.3-1.8,5-.6,2.3-1.3,4.6-1.8,6.9-1.1,4.5-2.1,9.1-2.9,13.7-.4,2.6-.8,5.1-1.2,7.7-.4,2.6-.7,5.2-.8,7.9,0,.2.2.4.4.4s.4-.1.4-.3c.4-2.1.6-4.4.9-6.6s.6-4.4,1-6.6c.7-4.4,1.6-8.7,2.6-13,.9-4.1,1.9-8.2,3.2-12.2,1-2.9,2.5-6.2,5.5-7.2,4.7-1.5,8.9,2.4,12.4,5,.1-.1.3-.2.2-.2Z"/><path class="cls-15" d="m412.9,290.8s-3-8.5,1.3-10.2c6.5-2.5,23.4,16.6,20.1,45.9,0,0-13.1-7.2-22.8-15.3s-12.1-18.7-7.9-21.5,9.3,1.1,9.3,1.1Z"/><path class="cls-8" d="m432.4,320.2c-.5-1-1-2-1.6-3-.5-1-1.1-2-1.7-3-1.1-1.9-2.2-3.9-3.4-5.8l-.6-.9c0-.1,0-.2.1-.3.1-.3.1-.6.2-.9.1-.6.2-1.3.4-1.9.2-1.2.5-2.5.8-3.8,0-.1-.1-.1-.1,0-.3,1.2-.7,2.5-1,3.7-.2.6-.4,1.2-.5,1.8-.1.2-.1.4-.2.6-1.4-2.3-2.8-4.6-4.3-6.8.1-.3.1-.6.1-.9,0-.4.1-.9.1-1.3.1-1,.2-1.9.4-2.9.2-1.9.6-3.8,1-5.6,0-.1-.1-.1-.1,0-.5,1.8-1,3.7-1.3,5.6-.2.9-.3,1.8-.5,2.8-.1.5-.1.9-.2,1.4v.4c-.5-.7-.9-1.3-1.4-2-1.5-2-3-3.9-4.6-5.8-.1-.1-.2,0-.1.1,2.7,3.4,5.1,7,7.4,10.8l1.3,2.1h-.4c-.5-.1-1.1-.1-1.6-.2l-3.3-.3c-2.2-.2-4.4-.3-6.6-.5-.1,0-.1.1,0,.1,2.2.3,4.5.6,6.7.9,1.1.2,2.2.3,3.3.4.8.2,1.7.3,2.5.3.9,1.4,1.7,2.8,2.6,4.2h-8c-.1,0-.1.1,0,.1,1.4,0,2.9.1,4.3.2l2,.1,1,.1c.3.1.6.1.9,0l2.2,3.6c.7,1.1,1.4,2.2,2.1,3.3.7,1.2,1.4,2.3,2.2,3.3-.2.1-.1.1-.1,0Z"/><path class="cls-8" d="m426.2,296.5c-.1.9-.3,1.9-.6,2.8-.2,1-.5,1.9-.8,2.8,0,0,0,.1.1.1s.1,0,.1-.1c.3-.9.5-1.9.8-2.8s.4-1.9.6-2.8h-.2Z"/><path class="cls-8" d="m416.5,302.3c-.2-.2-.5-.3-.7-.3l-1.2-.2-2.3-.3c-1.6-.2-3.2-.3-4.8-.5,0,0-.1.1,0,.1h0c1.5.2,3,.4,4.5.6l2.2.3,1.1.1c.4,0,.8.1,1.2.2,0,.1.1,0,0,0,.1,0,0,0,0,0Z"/><path class="cls-8" d="m426.1,315.1c-.8-.1-1.5-.1-2.3-.1h-2.3c-.1,0-.1.2,0,.1h1.3l1.1.1c.8,0,1.5.1,2.3.1,0,0,0-.2-.1-.2Z"/><path class="cls-8" d="m430.8,311.9c.1-.4.2-.9.2-1.3.1-.8.3-1.7.5-2.5,0-.1-.1-.1-.1,0-.2.8-.4,1.6-.5,2.5-.1.4-.2.8-.3,1.2l-.1.6c-.1.2-.1.4-.1.6,0,.1.1.1.2,0,0-.4.1-.8.2-1.1Z"/><polygon class="cls-9" points="386.4 330.5 387.3 340.9 390.4 375.9 417.8 375.9 421.7 340.9 422.9 330.5 386.4 330.5"/><polygon class="cls-8" points="386.4 330.5 387.3 340.9 421.7 340.9 422.9 330.5 386.4 330.5"/><rect class="cls-9" x="383.7" y="327.6" width="41.9" height="8.4"/></g><g id="freepik--Sofa--inject-7"><rect class="cls-15" x="265.3" y="261.1" width="78.9" height="130.8"/><rect class="cls-4" x="265.3" y="261.1" width="78.9" height="130.8"/><polygon class="cls-15" points="278.6 324.7 159.6 324.7 132.3 188.6 251.3 188.6 278.6 324.7"/><polygon class="cls-4" points="278.6 324.7 159.6 324.7 132.3 188.6 251.3 188.6 278.6 324.7"/><polygon class="cls-15" points="159.6 324.7 118 324.7 94.2 206.1 132.3 188.6 159.6 324.7"/><polygon class="cls-6" points="159.6 324.7 118 324.7 94.2 206.1 132.3 188.6 159.6 324.7"/><rect class="cls-15" x="74.5" y="261.1" width="98.8" height="130.8"/><rect class="cls-4" x="74.5" y="261.1" width="98.8" height="130.8"/><rect class="cls-4" x="74.5" y="261.1" width="63.7" height="130.8"/><polygon class="cls-4" points="309.2 391.8 291.8 391.8 265.8 261.1 309.2 261.1 309.2 391.8"/><rect class="cls-15" x="173.2" y="295.7" width="135.9" height="96.1"/><rect class="cls-4" x="173.2" y="295.7" width="135.9" height="96.1"/><g class="cls-2"><path class="cls-7" d="m146.8,261.1l13.2-.2,13.2-.2h.4v.4l.1,15.3.1,15.3c0,10.2.1,20.4,0,30.6s-.1,20.4-.2,30.6-.2,20.4-.4,30.6c-.2-10.2-.4-20.4-.4-30.6-.1-10.2-.1-20.4-.2-30.6s0-20.4,0-30.6l.1-15.3.1-15.3.4.4-13.2-.2-13.2-.2Z"/><path class="cls-7" d="m309.2,261.1c.3,10.2.4,20.5.5,30.7l.1,30.7-.1,30.7-.2,15.4-.3,15.4-.3-15.4-.2-15.4-.1-30.7.1-30.7c.1-10.3.2-20.5.5-30.7Z"/><path class="cls-7" d="m309.2,324.7c-11.3.3-22.7.4-34,.5l-34,.2-34-.1-17-.2-17-.3,17-.3,17-.2,34-.1,34,.1c11.3,0,22.7.2,34,.4Z"/><path class="cls-7" d="m309.2,295.7c-11.3.3-22.7.4-34,.5l-34,.2-34-.2-17-.2-17-.3,17-.3,17-.2,34-.1,34,.1c11.3.1,22.7.2,34,.5Z"/></g><polygon class="cls-9" points="98.7 391.8 97.8 402.4 95.8 426.9 86.6 426.9 84.6 402.4 83.7 391.8 98.7 391.8"/><polygon class="cls-10" points="83.7 391.8 98.7 391.8 97.8 402.4 84.6 402.4 83.7 391.8"/><polygon class="cls-9" points="163.2 391.8 162.4 402.4 160.3 426.9 151.1 426.9 149.1 402.4 148.2 391.8 163.2 391.8"/><polygon class="cls-10" points="148.2 391.8 163.2 391.8 162.4 402.4 149.1 402.4 148.2 391.8"/><polygon class="cls-9" points="270.2 391.8 269.4 402.4 267.4 426.9 258.1 426.9 256.1 402.4 255.2 391.8 270.2 391.8"/><polygon class="cls-10" points="255.2 391.8 270.2 391.8 269.4 402.4 256.1 402.4 255.2 391.8"/><polygon class="cls-9" points="334.8 391.8 333.9 402.4 331.9 426.9 322.6 426.9 320.6 402.4 319.8 391.8 334.8 391.8"/><polygon class="cls-10" points="334.8 391.8 333.9 402.4 320.6 402.4 319.8 391.8 334.8 391.8"/><g class="cls-21"><path class="cls-7" d="m147.5,232c-.5.1-.8.5-.7.9,0,.4.4.7.7.7.5-.1.8-.5.7-.9,0-.3-.3-.7-.7-.7Z"/><path class="cls-7" d="m149,354.2c-.5.1-.8.5-.7.9,0,.4.4.7.7.7.5-.1.8-.5.7-.9,0-.3-.3-.6-.7-.7Z"/><path class="cls-7" d="m240.2,333.3c-.5.1-.8.5-.7.9,0,.4.4.7.7.7.5-.1.8-.5.7-.9,0-.3-.3-.6-.7-.7Z"/><path class="cls-7" d="m206.1,318.2c0-.1-.1-.2-.1-.2-.1-.2-.3-.2-.5-.1-.1,0-.1.1-.1.1-.1.1-.1.2-.1.2-.6,1,1.2,1,.8,0Z"/><path class="cls-7" d="m122.6,356.3c0-.1-.1-.2-.1-.2-.1-.2-.3-.2-.5-.1-.1,0-.1.1-.1.1,0,.1-.1.2-.1.2-.5,1,1.3,1,.8,0Z"/><path class="cls-7" d="m154.7,237.1c-.4,0-.6.3-.6.6,0,.4.3.6.6.6.4,0,.6-.3.6-.6,0-.4-.2-.6-.6-.6Z"/><path class="cls-7" d="m91.2,295.7c-.4,0-.6.4-.6.7s.3.5.6.6c.4,0,.6-.4.6-.7-.1-.3-.3-.5-.6-.6Z"/><path class="cls-7" d="m194,201.4c-.3-.3-.9-.3-1.2,0s-.4.8-.3,1.2c.2.5.8.8,1.3.5.2-.1.4-.3.5-.5.1-.4,0-.8-.3-1.2Z"/><path class="cls-7" d="m156,349.5c-.3-.3-.9-.3-1.2,0s-.4.8-.3,1.2c.2.5.8.8,1.3.6.3-.1.5-.3.6-.6,0-.4-.1-.9-.4-1.2Z"/><path class="cls-7" d="m304.9,338.1c.5-.1.8-.5.7-.9,0-.4-.4-.7-.7-.7-.5.1-.8.5-.7.9,0,.3.3.7.7.7Z"/><path class="cls-7" d="m206.1,376.7c.5-.1.8-.5.7-.9,0-.4-.4-.7-.7-.7-.5.1-.8.5-.7.9,0,.4.3.7.7.7Z"/><path class="cls-7" d="m254.1,226.6c.5-.1.8-.5.7-.9,0-.4-.4-.7-.7-.7-.5.1-.8.5-.7.9,0,.3.3.6.7.7Z"/><path class="cls-7" d="m331.9,330.2c0,.1.1.2.1.2.1.2.3.2.5.1.1,0,.1-.1.1-.1,0-.1.1-.2.1-.2.6-1-1.2-1-.8,0Z"/><path class="cls-7" d="m255.3,279.9c.3.3.9.3,1.2,0s.4-.8.3-1.2c-.2-.5-.8-.8-1.3-.6-.3.1-.5.3-.6.6,0,.4.1.8.4,1.2Z"/></g></g><g id="freepik--Post--inject-7"><rect class="cls-18" x="180.2" y="49" width="94.8" height="113.6"/><rect class="cls-14" x="185.6" y="62.2" width="84" height="79.4"/><path class="cls-14" d="m189.7,57.9c-.2.2-.5.3-.8.3-1.5.4-3-.5-3.3-2-.4-1.5.5-3,2-3.3,1.5-.4,3,.5,3.3,2,.3,1.2-.2,2.4-1.2,3Z"/><path class="cls-18" d="m189.1,55.2c0,.5-.4.8-.8.8-.5,0-.8-.4-.8-.8s.4-.8.8-.8h0c.4,0,.8.4.8.8Z"/><path class="cls-18" d="m189.7,57.5v.3c-.2.2-.5.3-.8.3-.7.2-1.5.1-2.1-.3v-.3c-.1-.8.5-1.5,1.3-1.6s1.5.5,1.6,1.3v.3Z"/><path class="cls-11" d="m268,55.2c.1,0,.3.1.3.3h0c0,.1-.1.3-.3.3-.1,0-.3-.1-.3-.3h0c0-.1.2-.3.3-.3Z"/><path class="cls-11" d="m268.8,55.2c.1,0,.3.1.3.3h0c0,.1-.1.3-.2.3s-.3-.1-.3-.2v-.1c-.1-.1,0-.3.2-.3Z"/><path class="cls-11" d="m269.6,55.2c.1,0,.3.1.3.3h0c0,.1-.1.3-.3.3-.1,0-.3-.1-.3-.3,0-.1.1-.3.3-.3Z"/><rect class="cls-11" x="194.2" y="54.9" width="26.5" height="1.3"/><path class="cls-15" d="m191.2,147.8c-.4.7-.9,1.2-1.5,1.7-.3.3-.6.5-1,.8h-.3c-1-.7-1.8-1.5-2.4-2.5-.5-.8-.6-1.8-.2-2.6.2-.4.7-.7,1.1-.7.7,0,1.3.5,1.6,1.1.3-.7.9-1.1,1.6-1.1.5,0,.9.2,1.2.7.4.9.4,1.8-.1,2.6Z"/><path class="cls-11" d="m208.3,150.6l-.4-.1-.8-3.1-1.9-2.1.2-.4h6.8l.2.4-4.1,5.3Zm-2.4-5.2l1.6,1.8.1.1.7,2.7,3.4-4.6h-5.8Z"/><rect class="cls-11" x="206.87" y="145.97" width="5.8" height=".5" transform="translate(-41.28 97.66) rotate(-23.93)"/><path class="cls-11" d="m198.1,150.4c-1.6,0-2.9-1.3-2.9-2.9s1.3-2.9,2.9-2.9,2.9,1.3,2.9,2.9h0c0,.3,0,.6-.1.8l.4,1.8-.3.3-1.5-.4c-.4.2-.9.4-1.4.4Zm0-5.4c-1.3-.1-2.5.9-2.6,2.3-.1,1.3.9,2.5,2.3,2.6h.3c.4,0,.9-.1,1.2-.3h.2l1.2.3-.4-1.5v-.1c.4-1.3-.3-2.7-1.6-3.1-.1-.1-.4-.1-.6-.2h0Z"/><path class="cls-11" d="m265.7,150.3l-.4-.2v-4.9l.2-.2h4l.2.2v4.9l-.4.2-1.9-1.7-1.7,1.7Zm.1-4.9v4.2l1.6-1.5h.3l1.6,1.5v-4.2h-3.5Z"/></g><g id="freepik--speech-bubbles--inject-7"><rect class="cls-15" x="337.6" y="89.8" width="82.5" height="46.6"/><polygon class="cls-15" points="351.6 136.4 337.6 150.7 337.6 136.4 351.6 136.4"/><rect class="cls-14" x="349.6" y="99.1" width="49" height="1.4"/><rect class="cls-14" x="349.6" y="103.5" width="33.6" height="1.4"/><rect class="cls-14" x="349.6" y="107.9" width="58.7" height="1.4"/><rect class="cls-14" x="349.6" y="112.4" width="20.2" height="1.4"/><rect class="cls-14" x="349.6" y="116.8" width="46" height="1.4"/><rect class="cls-14" x="349.6" y="121.2" width="49" height="1.4"/><rect class="cls-14" x="349.6" y="125.6" width="36.7" height="1.4"/><rect class="cls-9" x="353.9" y="151.1" width="82.5" height="34.1"/><polygon class="cls-9" points="422.5 185.2 436.4 199.5 436.4 185.2 422.5 185.2"/><rect class="cls-14" x="366.6" y="158.3" width="44.4" height="1.5"/><rect class="cls-14" x="366.6" y="162.8" width="56.6" height="1.5"/><rect class="cls-14" x="366.6" y="167.4" width="41.1" height="1.5"/><rect class="cls-14" x="366.6" y="171.9" width="51.7" height="1.5"/><rect class="cls-14" x="366.6" y="176.4" width="33.9" height="1.5"/><rect class="cls-9" x="281.5" y="97.1" width="46.4" height="34.7"/><polygon class="cls-9" points="295.9 131.8 313.5 131.8 304.7 141.3 295.9 131.8"/><polygon class="cls-9" points="289 49 289 83.7 274.7 83.7 265.8 93.2 257 83.7 242.6 83.7 242.6 49 289 49"/><path class="cls-14" d="m309.4,108.8c0,2.6-2.1,4.7-4.8,4.7s-4.8-2.1-4.8-4.8,2.1-4.7,4.8-4.7h0c2.7.1,4.8,2.2,4.8,4.8h0Z"/><path class="cls-14" d="m314.7,124.2h-20s.5-4.8,1.5-6.2,3.6-3,8.5-3,7.5,1.6,8.5,3,1.5,6.2,1.5,6.2Z"/><rect class="cls-15" x="194.1" y="83.6" width="31.7" height="23.7"/><polygon class="cls-15" points="203.9 107.3 216 107.3 210 113.9 203.9 107.3"/><path class="cls-14" d="m216.1,98.1c-1.6,2.2-3.7,4-6.2,5.3-2.4-1.3-4.5-3.1-6.2-5.3-2.2-2.9-2.1-7.4,1-8.3,3.4-1.1,5.1,4.1,5.1,4.1,0,0,1.7-5.2,5.1-4.1,3.3,1,3.4,5.4,1.2,8.3Z"/></g><g id="freepik--Character--inject-7"><path class="cls-8" d="m268,201.3l-9.4.1c-1.7-3.3-3.8-9.1-2.8-17.2.2-1.4-3.1,6.4-2,17.3-9.9.1-23.3.2-35,.2-.2-4.6-.5-8.8-.5-8.8-.4,3-1.1,6-2,8.8h-4.7c.4-7.1-.6-19.5-.6-19.5-.9,6.8-3,13.4-6.1,19.5-7.4-.1-12.3-.3-12-.6,11.4-12.8,3.3-20.3,6.6-31.6,4-13.6,15.8-15.6,15.6-25.8-.1-8.3-1-23.5,9.6-26.6,5.9-5.6,14.6-7.2,22.1-3.9,16.6,6.6,9.6,32.2,10.7,37.4,1.5,7.5,5,10.2,7.6,18.7s-1.4,14.3-1.9,20.1,6.7,11.9,4.8,11.9Z"/><path class="cls-8" d="m192.7,199.2c1.6-2.2,2.8-4.7,3.7-7.2s.6-5.1.1-7.8c-.6-2.7-1-5.5-1.3-8.2-.3-2.9.1-5.8.9-8.6,1-2.8,2.5-5.3,4.6-7.3,2-2,4.2-3.7,6.5-5.3,2.2-1.5,4.2-3.3,6-5.4,1.7-2.1,2.7-4.7,3.1-7.4.1,2.8-.7,5.6-2.3,8-1.6,2.3-3.6,4.4-5.8,6.1-2.1,1.7-4.1,3.5-6,5.4-1.8,1.9-3.2,4.2-4,6.6-.8,2.5-1.1,5.1-.9,7.8.1,2.7.6,5.4.9,8.1.2,1.4.3,2.8.2,4.2-.1,1.5-.4,2.9-1,4.2-1.1,2.5-2.8,4.8-4.7,6.8Z"/><path class="cls-8" d="m256.1,122.8c1.1,3.2,1.8,6.6,2.1,10,.4,3.4.6,6.8.8,10.2l.3,5c.1,1.6.3,3.2.7,4.8.9,3.1,2.4,6.1,4.4,8.7,1,1.4,1.9,2.9,2.7,4.5.8,1.6,1.4,3.3,1.8,5s.6,3.5.7,5.2c.1,1.8,0,3.5-.4,5.2-.3,1.7-.8,3.4-1.3,5-.4,1.6-.7,3.2-.9,4.9-.1,3.4,1.3,6.6,4,8.6-3-1.9-4.9-5.1-5-8.7,0-1.7.2-3.5.5-5.2s.8-3.3,1-4.9c.4-3.2.2-6.5-.6-9.7-.4-1.6-1-3.1-1.7-4.5-.8-1.5-1.6-2.9-2.6-4.2-.9-1.4-1.9-2.9-2.7-4.4-.8-1.6-1.5-3.3-1.9-5s-.6-3.5-.6-5.2c-.1-1.7-.1-3.4-.1-5.1,0-3.4,0-6.8-.1-10.1,0-3.4-.4-6.8-1.1-10.1Z"/><path class="cls-18" d="m285.1,444.4c-2.9-.4-76-36.9-77.8-39.9-.2-.4,2.9-7,7.4-16.1,3.5-7.2,8.3-16.1,13-24.7l46.3,22.6-9.2,17.5s8.1,9.8,14.7,18.2h0c4.1,5.1,7.5,9.7,8.2,11.1,1.7,3.4.3,11.7-2.6,11.3Z"/><path class="cls-15" d="m286,446.2c-3-.5-76.6-38.3-78.5-41.5-.9-1.5,6.5-17.5,14.7-34.2l47.9,24.4-4.6,8.5s21.7,27.1,23.4,30.8.1,12.5-2.9,12Z"/><path class="cls-8" d="m286.4,442.8c-12.2-6.6-61.9-32.3-74.5-37.9q-.1,0,0,.1c11.9,6.9,61.9,32.1,74.4,38,.3.1.4-.1.1-.2Z"/><path class="cls-8" d="m268.6,401.7c-4.4-3.4-10.7-5.7-16.2-4.1-.2.1-.1.4.1.4,5.4.9,10.7,2.4,15.8,4.4.2.1.4,0,.5-.2-.1-.2-.1-.4-.2-.5Z"/><path class="cls-8" d="m271,405.6c-4.4-3.4-10.7-5.7-16.2-4.1-.2.1-.1.4.1.4,5.4.9,10.7,2.3,15.8,4.4.2.1.4,0,.5-.2,0-.2-.1-.4-.2-.5Z"/><path class="cls-8" d="m273.4,409.5c-4.4-3.4-10.7-5.7-16.2-4.2-.2.1-.1.4.1.4,5.4.9,10.7,2.4,15.8,4.4.2.1.4,0,.4-.2,0-.1,0-.3-.1-.4Z"/><path class="cls-8" d="m275.8,413.5c-4.4-3.4-10.7-5.7-16.2-4.2-.2.1-.1.4.1.4,5.4.9,10.7,2.3,15.8,4.4.2.1.4,0,.4-.2.1-.2,0-.4-.1-.4Z"/><path class="cls-8" d="m283.3,395.1c-.6-3.6-4.7-4.2-7.6-3.6-5,1.2-9.5,3.7-13.2,7.3q-.1.1,0,.2h0c-.2.3-.1.7.3.9.1,0,.1.1.2.1,4.8.6,9.8,1.8,14.6.9,2.8-.5,6.2-2.4,5.7-5.8Zm-12.9,4.3c-2.4-.2-4.7-.6-7-.7,2.5-1.5,5.1-2.9,7.8-4.1,1.3-.6,2.6-1.1,4-1.5,2.1-.6,9.3-.4,5.7,4.5-2.1,2.7-7.7,2.1-10.5,1.8h0Z"/><path class="cls-8" d="m250.8,391.2c3.1,3.8,7.8,6,11.8,8.6.3.2.8,0,.9-.3,0-.1.1-.1.1-.2.1,0,.2,0,.2-.2-.6-5.1-2.5-9.9-5.5-14-1.8-2.4-5.4-4.5-8.2-2.1s-1.1,6,.7,8.2Zm-.4-4.6c.4-6,5.9-1.6,7.2.2.8,1.2,1.5,2.4,2.1,3.7,1.4,2.6,2.3,5.4,3.4,8.1-1.9-1.4-3.9-2.6-5.9-3.9-2.2-1.7-7-4.8-6.8-8.1h0Z"/><path class="cls-10" d="m275.8,395.6l-53-26.8s38.7-72.3,37.6-73.6c-3.6-4.6-46.6-2.5-65.2-21-19.7-19.6-4.2-50.1-4.2-50.1h51.4s-.9,16.6,1.3,18.4c1.5,1.2,77.1,8.5,80.1,28.5,5.1,34.5-48,124.6-48,124.6Z"/><path class="cls-8" d="m277.9,387.3c-6.1-3.7-12.4-7.1-18.7-10.5s-12.6-6.7-19.1-9.9c-3.6-1.8-7.3-3.4-10.9-5.2q-.1,0-.1.1v.1c3.2,1.7,6.3,3.6,9.4,5.3s6.2,3.4,9.4,5c6.3,3.4,12.7,6.6,19,10,3.6,1.9,7.2,3.6,10.8,5.4.1,0,.2,0,.2-.1,0-.1,0-.2,0-.2Z"/><path class="cls-8" d="m280.6,286.7c-1.3-2.6-4.6-3-7.1-3.6l-20.5-5.1c-12.1-3-24.6-5.8-35.5-12.2-5.2-3.1-10.2-7-12.8-12.5s-2.6-11.6-2.6-17.5c0-1.5.1-2.9.2-4.4,0-.1-.2-.1-.2,0-.4,5.8-1,11.6.3,17.4.6,2.8,1.7,5.5,3.3,7.9s3.6,4.5,5.9,6.2c9.6,7.5,21.6,11.1,33.3,14.1,6.6,1.7,13.2,3.3,19.8,4.9l10.2,2.5c1.5.2,2.9.8,4.1,1.7,1,1,1.4,2.3,1.3,3.7-.1,1.4-.5,2.8-1,4-.6,1.6-1.3,3.2-1.9,4.8-1.3,3.1-2.5,6.2-3.9,9.2-2.7,6.2-5.4,12.3-8.3,18.4-5.7,12.1-11.8,24.1-18.1,36-.8,1.5-1.5,3-2.3,4.5,0,.1.1.2.1.1,6.7-11.8,12.9-23.8,18.9-35.9s11.5-24.3,16.3-36.8c.8-2.4,1.6-5.1.5-7.4Z"/><path class="cls-18" d="m400.6,447.1c-2.8.9-84.4,0-87.5-1.9-.4-.2-.4-17.7-.4-17.7-1.6-8.2-3.2-18.3-4.6-27.8h54l2.4,19.7s11.6,5.3,21.2,9.9h0c5.9,2.9,11,5.4,12.2,6.4,3.1,2.5,5.5,10.5,2.7,11.4Z"/><path class="cls-15" d="m401.8,447.8c-2.9,1-85.6.5-88.8-1.6-1-.6-3.7-31-3.8-37.1l55.3.2-.3,9.7s31.6,14.4,34.8,16.9,5.7,11,2.8,11.9Z"/><path class="cls-8" d="m400.6,444.5c-13.9-.4-69.8-.8-83.6-.2-.1,0-.1.1,0,.1,13.7.7,69.7.7,83.6.3.3,0,.3-.2,0-.2Z"/><path class="cls-8" d="m366.1,415.9c-5.5-1.1-12.1-.3-16.3,3.6-.2.1,0,.4.2.3,5.2-1.7,10.6-2.7,16.1-3.2.2,0,.3-.1.4-.3,0-.2-.2-.4-.4-.4h0Z"/><path class="cls-8" d="m370.1,418.3c-5.5-1-12.1-.2-16.3,3.6-.2.1,0,.4.2.3,5.2-1.7,10.6-2.8,16-3.3.2,0,.3-.2.3-.4,0,0-.1-.1-.2-.2Z"/><path class="cls-8" d="m374,420.7c-5.5-1-12.1-.2-16.3,3.6-.2.1,0,.4.2.3,5.2-1.7,10.6-2.7,16.1-3.2.2,0,.3-.2.3-.4,0-.1-.2-.2-.3-.3Z"/><path class="cls-8" d="m377.9,423.1c-5.5-1-12.1-.2-16.3,3.6-.2.1,0,.4.2.3,5.2-1.6,10.6-2.7,16.1-3.2.2,0,.3-.2.3-.4,0-.1-.1-.2-.3-.3Z"/><path class="cls-8" d="m376.3,403.4c-2.1-3-6.1-1.7-8.4.2-3.9,3.3-6.8,7.6-8.5,12.5,0,.1,0,.2.1.2h0c0,.4.3.7.6.7h.2c4.5-1.6,9.5-2.8,13.4-5.8,2.4-1.8,4.6-5,2.6-7.8Zm-9.6,9.7c-2.2.9-4.4,1.6-6.6,2.5,1.6-2.5,3.3-4.9,5.1-7.2.9-1.1,1.9-2.1,2.9-3.1,1.6-1.5,8.1-4.6,7.1,1.4-.5,3.3-5.9,5.3-8.5,6.4Z"/><path class="cls-8" d="m345.5,414.6c4.5,1.9,9.7,1.9,14.4,2.4.4,0,.7-.3.7-.7v-.2c.1,0,.1-.1.1-.2v-.1c-2.8-4.3-6.7-7.7-11.3-10-2.7-1.3-6.9-1.6-8.2,1.8-1.2,3.3,1.7,5.8,4.3,7Zm-2.4-4c-2.4-5.6,4.6-4.1,6.5-3.1,1.2.7,2.4,1.5,3.6,2.3,2.3,1.8,4.6,3.7,6.7,5.7-2.3-.4-4.7-.6-7-.9-2.8-.3-8.5-.9-9.8-4Z"/><path class="cls-10" d="m365.9,408.4l-61.6-.5s-12.6-96-17.6-101.3c-2.5-2.7-83.9-3.1-103.8-22.1s0-60.4,0-60.4h52.5s1.3,16.2-2.7,26.1c0,0,73.4,1.2,93.4,16.9,26.8,21.1,39.8,141.3,39.8,141.3Z"/><path class="cls-8" d="m361.2,398.2c-7.1-.5-14.3-.7-21.5-.9s-14.3-.2-21.5-.2c-4,0-8.1.3-12.1.3-.1,0-.1.1-.1.1,0,0,0,.1.1.1,3.6.1,7.2.4,10.8.5s7.1.2,10.6.2c7.2.1,14.3.1,21.5.2,4,0,8.1,0,12.1-.1.1.1.2,0,.1-.2,0,.1,0,0,0,0Z"/><path class="cls-8" d="m209.6,231.8c-.1.2-.2.5-.3.7v.1c-.7,2.1-1,4.4-1.6,6.6-.6,2.3-2.1,4.3-4,5.7-4.1,2.8-9,4.1-13.7,5.3-.1,0-.1.1-.1.1,0,.1.1.1.1.1,2.7,0,5.5-.4,8.1-1.2,2.4-.7,4.8-1.8,6.8-3.3,2-1.4,3.4-3.5,4-5.9.3-1.2.5-2.5.7-3.8.3-1.5.4-2.9.5-4.4,0-.1-.1-.2-.2-.2-.3,0-.3.1-.3.2Z"/><path class="cls-8" d="m242.2,246.6c-3.2.9-6.4,2.1-9.4,3.6l-.1.1c.1-.2.1-.4.1-.6s.1-.4.1-.7.1-.5.1-.7v-.4h0c.8,0,1.5-.4,2-1,.6-.9,1.1-1.9,1.3-3,.4-1.3.7-2.7,1-4,.3-1.5.6-3,.9-4.6.3-1.5.5-3,.5-4.5,0-.1-.1-.2-.2-.2s-.2.1-.2.2c-.4,1.4-.5,2.8-.8,4.2s-.6,2.8-.9,4.2-.7,2.8-1.1,4.2c-.3,1.2-.7,3-2.1,3.4-3,.8-1.6-5.8-1.5-7.1.3-3,.5-6,1-9q0-.1-.1-.1t-.1.1c-.6,2.7-1.4,5.4-1.9,8.2-.2,1.4-.4,2.7-.6,4.1-.2,1.2-.2,2.4.3,3.5.4.8,1.1,1.3,1.9,1.4l-.1.3c-.1.2-.1.4-.2.7s-.1.4-.2.7c-.1.3-.1.5-.1.8,0,.1.1.1.1.2-1.3.6-2.5,1.1-3.8,1.7-1.6.6-3.1,1.4-4.5,2.2-.2.1,0,.3.1.3,1.6-.5,3.2-1,4.7-1.7,1.6-.6,3.1-1.2,4.7-1.9,3.1-1.1,6.1-2.5,9-4.2.1,0,.2-.1.2-.3.1,0,0-.1-.1-.1h0Z"/><path class="cls-8" d="m181.7,248.8c.6-5.2,1.6-10.3,3.2-15.3.4-1.3.8-2.6,1.3-3.8,0-.1.1-.1.1-.1.1,0,.1.1.1.1-1.7,5-2.8,10.1-3.5,15.4-.8,5-.9,10.2-.5,15.3.5,4.6,2.1,9.1,4.8,12.9,2.6,3.4,5.7,6.3,9.4,8.5,8.5,5.3,18.6,7.3,28.3,9.1,10.7,2.1,21.4,3.9,32.2,5.6,12.1,1.9,35.8,3.2,36.9,5.3,2,4.1,5.2,23.3,7.3,35.1s7.2,51.8,7.6,58.5c0,.4-.6.4-.7,0-1.1-11.9-3.2-26.9-4.8-38.7s-3.6-23.4-6-35c-1.3-6.4-3.8-17.8-4.6-18.9-1.2-1.7-21.6-3.1-32.4-4.8s-22-3.6-32.9-5.7c-10-1.9-20.4-3.6-29.4-8.6-7.8-4.3-14.1-11.1-16-19.9-1-5-1.1-10.1-.4-15Z"/><path class="cls-8" d="m257.1,303.3c2.1,0,26.7,2.2,30.9,3.1.3.1,7.8,41.7,8.5,49.4.1,1-.3,2-.6,0-.6-3.8-9.2-48.3-9.2-48.3-4.2-.5-27.6-3.5-29.7-3.8-.1-.2-.1-.4.1-.4Z"/><path class="cls-8" d="m234.6,250.1c14.4.4,28.8,1.5,43.1,3.4,6.4.8,12.8,1.8,19.1,2.9,5.7,1,11.2,2.4,16.6,4.3,3,1.1,5.8,2.4,8.5,4,2.7,1.7,5.2,3.6,7.4,5.8.1.1,0,.2-.1.1-4.3-3.6-9.6-6.1-14.8-8.1-5.3-2-10.8-3.4-16.3-4.4-6.2-1.2-12.4-2-18.7-2.9-6.7-.9-13.5-1.8-20.3-2.4-7.6-.8-17-1.4-24.6-2.2-.1,0-.2-.2-.2-.3.2-.1.3-.2.3-.2Z"/><path class="cls-17" d="m222.2,171.9c5.9,20,20.2,45.2,30.9,44.5,9.7-.6,31.2-12.1,40-18.2s-12-27.8-17.3-24.3c-7,4.6-19.2,14.7-21.2,14.2-2.6-.7-5.3-4.6-20.6-22.4-6.3-7.2-14.3-2.3-11.8,6.2Z"/><path class="cls-17" d="m285.3,165.1c4.3-1.5,9.1-3.5,13.9-3.4s8.7,6.4,8.6,8.2-1.9,13-6.6,13-1.8-8.6-2-9.6-.3-2.2-1.2-2.2-16.7,7.4-16.7,7.4l4-13.4Z"/><path class="cls-17" d="m285.6,165.8c.3,0,13.1-4.9,17.8-4.8s8.7,6.4,8.7,8.2-1.9,13-6.6,13-1.8-8.6-2-9.6-.3-2.2-1.2-2.2-16.7,7.4-16.7,7.4v-12Z"/><path class="cls-8" d="m303.9,181.6c-.5-.9-.8-1.8-.8-2.8-.1-1,0-2,.2-3,.3-.9.5-1.7.6-2.6,0-.9-.2-1.7-.6-2.5-.4-.7-1.1-.4-1.7-.2-.9.3-1.8.7-2.6,1.1l-2.7,1.4c-1,.4-1.9.9-2.8,1.5-.1.1,0,.2,0,.1.8-.3,1.6-.7,2.4-1.1.9-.4,1.8-.8,2.7-1.2s1.7-.8,2.5-1.2c.3-.1.9-.4,1.3-.4s.5,1,.6,1.3c.2.9.1,1.7-.2,2.6-.3.9-.4,1.7-.5,2.6-.1.8,0,1.7.2,2.5.3.7.7,1.4,1.1,2.1.2,0,.3-.2.3-.2Z"/><path class="cls-17" d="m270.4,178.2s13.3-11.9,16-14.3c5.5-4.8,28.8-14.1,32.1-14.4s4.4,6.3-11.4,13.1c-8.3,3.6-9.9,8.3-9.7,10.9s2.6,7.6,7.1,7.5,7.4-6.5,11.4-7.2,1.3,6.8-1.6,11.1c-3,4.1-7.2,7.3-12,9.2-3.9,1.4-15.8,6.4-15.8,6.4l-16.1-22.3Z"/><path class="cls-8" d="m310,177.9c-1.7,1.3-3.6,2.9-5.8,3s-3.7-1.4-4.8-3.3c-1.1-1.8-1.5-4-1.1-6.1.5-1.9,1.6-3.6,3.1-4.9,1.8-1.6,3.8-3,6-4,.1,0,0-.2-.1-.1-2,.9-8.4,3.4-9.7,9-.4,2.2,0,4.4,1.2,6.3,1,1.8,2.4,3.5,4.5,3.7,2.6.2,4.9-1.9,6.8-3.5.1-.1,0-.1-.1-.1Z"/><path class="cls-15" d="m221.3,176.2c1.8,8.1,4.7,15.8,8.6,23.1.8,1.4,1.3,2.2,1.3,2.2l18.3-15.9,2.5-2.2s-.4-.5-1.6-1.9c-1.8-2-5.3-5.8-11.9-12.3-3.9-3.9-7.3-6.4-9.9-7.6-7.5-3.7-10.2,2.4-7.3,14.6Z"/><path class="cls-15" d="m228,201l4.8,6.8,20.5-18.1,4.6-4.1c-.6-.5-6-5.3-6-5.3l-1.3,1.1-2.6,2.2-18,15.6-2,1.8Z"/><path class="cls-3" d="m228,201l4.8,6.8,20.5-18.1,4.6-4.1c-.6-.5-6-5.3-6-5.3l-1.3,1.1-2.6,2.2-18,15.6-2,1.8Z"/><path class="cls-8" d="m221.3,176.2c1.8,8.1,4.7,15.8,8.6,23.1l-1.9,1.7,4.8,6.8,20.5-18.1-3.6-4.1-1.7-1.9c-7.4-8.5-14.8-17-19.3-22.2-7.6-3.6-10.3,2.5-7.4,14.7Z"/><path class="cls-15" d="m246.5,237.8s-24.6,3.9-70-3.6c0,0,24.8-55.6,40.3-69.9,7.1-6.5,13.8-4.1,18.9.8,1.3,1.2,13.5,22.9,14.4,30.4.8,6.7-5.1,13.5-5.1,13.5l1.5,28.8Z"/><path class="cls-17" d="m225,161.7c0,1.3,7.9,12.1,13.4,13.2.9.2-1.5-5.9-1.5-5.9.9-2.4,1.6-5,1.6-5l.4-.7,4.9-9.5-9.8-10.7-1.4-1.4s-1.2,2.7-2.6,6l-.2.5c-.1.2-.2.4-.2.5-.2.5-.4,1-.6,1.5s-.3.8-.5,1.2-.3.8-.5,1.2c-1.3,3.1-2.3,6.1-3,9.1Z"/><path class="cls-8" d="m229.9,147.8c.5,6.3,3.8,12,8.9,15.6l4.9-9.4-9.8-10.7-1.4-1.4c0-.1-1.2,2.6-2.6,5.9Z"/><path class="cls-17" d="m260.6,141c-1.5,18.6-12.9,19.8-16.9,19.5-3.6-.3-16-1.8-16.4-20.5s8.7-23.9,17.1-23.6,17.7,5.9,16.2,24.6Z"/><path class="cls-8" d="m228.5,141.5c2,0,7.6-5.4,8.2-15.2,0,0-1.1,8.8-1.9,10s3.1-3,3.7-10.9c2.4,1.9,5.1,3.4,7.9,4.6,3.7,1.2,6,1.3,6.2,1s-5.1-2.2-6.6-4c0,0,9.7,5.1,14.3,5.6.5.1.9-9.4-6-14.3s-17.5-1.9-20.6.9c0,0-2.2.9-6.3,5.9-4,5.1-1.1,16.4,1.1,16.4Z"/><path class="cls-5" d="m247.1,139.9c-2.7-.8-4.1,4.7-1.6,5.4s3.8-4.8,1.6-5.4Z"/><path class="cls-5" d="m256.3,140.4c-2.4-.2-2.7,5.5-.4,5.7,2.3.2,2.5-5.5.4-5.7Z"/><path class="cls-8" d="m258.1,137.4c-.4-.2-.8-.4-1.1-.6-.4-.3-.8-.4-1.3-.4-.3.1-.5.3-.5.6.1.6.5,1.1,1,1.3.5.3,1.1.4,1.7.3.4-.1.6-.5.5-.8,0-.1-.1-.3-.3-.4Z"/><path class="cls-8" d="m245.1,136.2c.4-.2.8-.3,1.2-.4.4-.2.9-.3,1.3-.2.3.1.4.4.4.7-.1.6-.6,1-1.2,1.2-.5.2-1.2.3-1.7.1-.4-.1-.5-.6-.4-.9.2-.3.3-.4.4-.5Z"/><path class="cls-8" d="m247.8,141.3l-.1.1c-.1,1.3-.3,2.7-1.5,3v.1c1.4-.1,1.7-2,1.6-3.2Z"/><path class="cls-8" d="m246.8,139.9c-2-.3-2.5,3.8-.6,4s2.2-3.8.6-4Z"/><path class="cls-8" d="m245.9,140c-.4.2-.8.6-1.2.6s-.8-.5-1.1-.9h-.1c-.1.8.1,1.6.9,1.8s1.4-.4,1.6-1.2c.2-.1.1-.4-.1-.3Z"/><path class="cls-8" d="m254.8,141.7l.1.1c-.2,1.2-.2,2.7.9,3.3v.1c-1.4-.4-1.4-2.3-1-3.5Z"/><path class="cls-8" d="m256,140.6c2,.1,1.7,4.1-.2,4.1s-1.5-4.2.2-4.1Z"/><path class="cls-8" d="m256.9,140.9c.3.2.6.7,1,.7s.8-.3,1.1-.7h.1c0,.8-.4,1.6-1.1,1.6s-1.1-.6-1.2-1.4c-.2-.1,0-.3.1-.2Z"/><path class="cls-8" d="m245.8,151.8c.2.3.5.8.9.9.5.1.9,0,1.4-.1,0,0,.1,0,0,.1-.4.4-1.1.6-1.7.4-.5-.2-.8-.7-.8-1.2,0-.2.1-.2.2-.1Z"/><path class="cls-8" d="m252.4,147.2s.1,1.9,0,2.8c-1.7-.2-3.5-.1-5.2.2-.4.1-.4-.2.1-.4,1.4-.6,2.9-.9,4.4-.6.1-.2-.2-2.9,0-2.9.7.1,1.4.4,2,.7,0-4-.7-7.9-.7-11.8,0-.1.1-.1.1-.1.1,0,.1.1.1.1.8,4.2,1.3,8.4,1.3,12.7-.1.3-1.8-.5-2.1-.7Z"/><path class="cls-8" d="m250.2,149.9s-1.1,2-2.4,2.1c-1.6.1-1.9-1.8-.1-2.4.8-.2,1.7-.1,2.5.3Z"/><path class="cls-16" d="m249.4,151c-.4.5-1,.9-1.6,1s-1.2-.3-1.3-.9v-.2h0v-.1c1.6-.6,2.5-.3,2.9.2Z"/><path class="cls-15" d="m227.9,146.1c.8,2.7-6.1-9.7-6.2-11.7s3.1-11.9,11.1-16.5c6.7-3.9,15.4-2,16.9-1.6,1.7.4,3.3,1.1,4.7,2.2,0,0-11.4-2.5-20.6.9-4.5,1.5-9,16.5-5.9,26.7Z"/><path class="cls-15" d="m229.3,117.2s1.8-6,6.9-8c0,0,1.2,5.2-.2,7.4-.7,1.1-4.7,2.5-5.4,2-.5-.4-.9-.9-1.3-1.4Z"/><path class="cls-1" d="m229.3,117.2c.4.5.8,1,1.3,1.4.3.3,1.5.1,2.7-.3-.3-.8-.7-1.5-1.2-2.2-.6-.8-2.4-1.1-3.2-1.2.2,1.3.4,2.3.4,2.3Z"/><path class="cls-15" d="m228.2,118.2s-7.6.8-10.7,3.3c0,0,2.9,3.3,6.8,3.3,1.8,0,5.7-4.2,5.2-5-.3-.6-.8-1.1-1.3-1.6Z"/><path class="cls-1" d="m227.2,120.8c.5.5,1.1.9,1.8,1.2.5-1,.8-1.9.6-2.2-.4-.6-.9-1.1-1.4-1.5,0,0-.7-.1-1.8-.2,0,.9.3,1.9.8,2.7Z"/><path class="cls-15" d="m227.9,120.1c.9,1,2.5,1.1,3.5.1,1-.9,1.1-2.5.1-3.5-.9-1-2.5-1.1-3.5-.2-1,1-1.1,2.6-.1,3.6Z"/><path class="cls-17" d="m226.6,146.8c.3.2.5.3.8.4.3.1.6.2.9.2.4,0,.8,0,1.1-.2.3-.1.5-.2.8-.4s.6-.6.9-.9l-.2-5.1s-3.1-6.4-5.9-5.4-1.2,9.8,1.6,11.4Z"/><path class="cls-8" d="m225.6,137.9c2,1.2,2.8,3.4,3.2,5.6-.3-.9-1.3-1.4-2.2-1-.1,0-.2.1-.3.1s0,.1,0,.1c.8-.1,1.6.3,2,1,.3.6.6,1.2.7,1.9.1.2.4.2.4-.1v-.1c.5-2.6-1-6.8-3.8-7.5h0Z"/><path class="cls-14" d="m227,146.1c0,.5.3.9.8.9s.9-.3.9-.8v-.2c-.1-.5-.5-.8-1-.7-.4,0-.7.4-.7.8Z"/><path class="cls-14" d="m225.5,144.5c0,.3.3.6.6.6h0c.3,0,.6-.3.6-.6s-.3-.6-.6-.6-.6.2-.6.6h0Z"/><path class="cls-17" d="m215.4,177.6c5,20.3,32.2,59.5,43.7,62.3,13.3,3.2,49.3-11.7,57.7-18.9,3.4-2.9-15.7-24.5-20-22.6-17.9,8.1-32.6,10.8-35.1,9.4-3.8-2.2-20-20.7-30.7-33.2-13.4-15.7-17.9-6.1-15.6,3Z"/><path class="cls-17" d="m315.8,221.6c1.9-.8,14.3-11.3,17.8-16,3.9-4.9,6.9-10.5,8.9-16.4,3.2-9.3,4.6-16.1,3.4-19-1.3-3.4-1.7-3.9-9.7,11.8-4.5,8.9-9.3,10.2-13.6,10.4-10.4.5-20.5,3.4-29.7,8.4.2.1,15.8,24,22.9,20.8Z"/><path class="cls-8" d="m330.8,156.3l-18.2,28.1c-.4.5-.4,1.2.1,1.6.2.1.3.2.6.3l15.8,3.6c1,.2,2-.3,2.6-1.1l18.2-28c.4-.5.4-1.2-.1-1.6l-.6-.3-15.8-3.6c-1.1-.2-2.1.2-2.6,1Z"/><path class="cls-10" d="m329.3,156.1l-18.2,28.1c-.4.5-.4,1.2.1,1.6l.6.3,15.8,3.6c1,.2,2-.3,2.6-1.1l18.2-28.1c.4-.5.4-1.2-.1-1.6l-.6-.3-15.8-3.6c-1-.2-2,.2-2.6,1.1Z"/><path class="cls-14" d="m329.4,157.7l-16.7,25.7c-.5.8-.3,1.6.5,1.8l14.2,3.3c.9.1,1.8-.3,2.4-1.1l16.7-25.7c1-1.6.6-2.1-.2-2.3l-2.8-.6c-.2,0-.4.1-.5.3l-.1.1c-.3.5-.6.4-1,.4l-6.6-1.5c-.4-.1-.7-.1-.3-.6l.1-.1c.1-.2.1-.4,0-.4l-2.8-.6c-1-.5-1.9-.2-2.9,1.3Z"/><path class="cls-14" d="m338.1,157.8l1.8.4q.1,0,.2-.1h0l.1-.1-.1-.1-1.8-.4q-.1,0-.2.1h0s-.1.1,0,.1q-.1.1,0,.1Z"/><polygon class="cls-15" points="322.1 173.4 334.1 176.2 341.3 165.1 329.3 162.4 322.1 173.4"/><polygon class="cls-13" points="326 176.4 333 178 333.4 177.3 326.4 175.7 326 176.4"/><polygon class="cls-13" points="324 177.1 332.3 179.1 332.5 178.7 324.2 176.8 324 177.1"/><polygon class="cls-13" points="323.6 177.7 331.9 179.6 332.1 179.3 323.8 177.4 323.6 177.7"/><polygon class="cls-13" points="323.2 178.3 331.5 180.2 331.7 179.9 323.4 178 323.2 178.3"/><polygon class="cls-13" points="342 161.4 343.5 161.8 343.6 161.5 342.1 161.2 342 161.4"/><polygon class="cls-13" points="341.6 161.9 343.1 162.3 343.3 162 341.8 161.7 341.6 161.9"/><polygon class="cls-13" points="341.3 162.4 342.8 162.8 343 162.5 341.5 162.2 341.3 162.4"/><path class="cls-15" d="m321.2,175.1c0,.2.1.3.2.4.2,0,.4-.1.6-.2.4-.2.6-.6.3-.6s-.5.2-.5.2c0,0,.1-.3-.1-.4s-.6.3-.5.6Z"/><polygon class="cls-15" points="317.2 183.1 326.9 185.3 328.5 182.8 318.8 180.6 317.2 183.1"/><path class="cls-17" d="m324.9,192.2c-4.4.4,9.2-9.5,9.1-14.5s-4.9-3.1-8.5,0c-12.6,10.7-22.7,11-28.7,20.8s28.1-6.3,28.1-6.3Z"/><path class="cls-8" d="m254.4,201.3c1.2,1,2.3,2.1,3.5,3.2,1,1,2.1,2,3.3,2.8,1.5.8,3.1,1,4.7.7,1.4-.2,2.9-.4,4.3-.8,5.8-1.4,11.5-3.1,17.1-5.2,3.1-1,6.2-2.3,9.2-3.7l-.4.4c.8-1.3,1.7-2.6,2.8-3.7,1.2-1.3,2.6-2.5,4.1-3.6,1.6-1.1,3.2-2.1,4.9-3,.9-.5,1.8-.9,2.7-1.4l1.4-.6c.4-.2,1.3-.5,1.6-.8-.1.1-.3-.1-.2-.2h.2l.1.1v.1c-.1.2-.5.3-.7.5l-1.3.8c-.8.5-1.6,1-2.4,1.5-1.8,1.1-3.6,2.2-5.3,3.4-1.5,1-2.8,2.1-4.1,3.3-.7.6-1.3,1.3-1.9,1.9-.6.6-1.1,1.3-1.6,2.1,0,.1-5.5,2.6-8.3,3.7s-5.7,2.2-8.7,3.1-5.9,1.7-8.9,2.4c-1.5.4-3.1.6-4.6.8-1.4.3-2.9.1-4.2-.4-1.3-.9-2.4-1.9-3.4-3.1-1.4-1.4-2.8-2.7-4.1-4.1v-.1l.2-.1Z"/><path class="cls-15" d="m254.8,200.6l-21.6,17.2s-15.4-22.4-18.6-39,5.4-18.2,19.1-2.2c13.4,15.6,21.1,24,21.1,24Z"/><path class="cls-8" d="m240.3,184.1c2.4,2.5,4.7,5.1,7,7.7,1.1,1.3,2.2,2.6,3.3,3.9l1.7,2.1c.6.8,1.2,1.5,1.9,2.2.1.1-.1.3-.2.2-1.1-1.4-2.3-2.6-3.5-3.8-1.2-1.3-2.4-2.6-3.6-4-2.2-2.7-4.6-5.4-6.6-8.3-.1.1,0,0,0,0Z"/><path class="cls-8" d="m218.6,194.2c.6.8,1.3,1.6,2,2.4.3.3.6.6.8.9-1.2-2.4-2.3-4.7-3.3-7.1,0-.1.1-.1.1,0,2.6,4.6,5,9.4,7.6,14s5,9.6,7.9,14.2v.2c0,.1-.1,0-.2,0h0c-2.8-4.6-5.8-9.1-8.3-13.9-1-1.9-2-3.8-3-5.8-.3-.3-.6-.6-.9-1-.4-.4-.7-.8-1-1.2-.6-.9-1.2-1.7-1.9-2.5-.1-.2.1-.3.2-.2Z"/><path class="cls-15" d="m260.3,203.1l-5.8-5.6-24.7,19.7,4.5,6.9,26-21Z"/><path class="cls-3" d="m260.3,203.1l-5.8-5.6-24.7,19.7,4.5,6.9,26-21Z"/><path class="cls-8" d="m232.9,214.6c3.1-2.7,6.4-5.1,9.6-7.7s6.6-4.8,9.7-7.5c.1-.1.3.1.1.2-3.2,2.6-6.1,5.4-9.3,7.9s-6.5,5-9.9,7.2c-.1.2-.3,0-.2-.1Z"/><path class="cls-8" d="m238.7,220.7c-1.6,1-3,2.1-4.5,3.2l.5.1c-1.4-2.4-3-4.6-4.6-6.9v.3c.6-.5,1.2-1.1,1.7-1.6-.7.4-1.3.9-2,1.3l-.1.1.1.2c1.4,2.4,2.8,4.7,4.4,7l.2.3.3-.2c1.3-1.3,2.7-2.5,4-3.8Z"/></g><path class="cls-14" d="m278.8,66.7c0-1.6-1.3-2.9-2.9-2.9-.8,0-1.5.3-2,.8-1.9-1.4-4.6-2.3-7.6-2.4l1.3-6.1,4.2.9c.1,1.1.9,1.9,2,1.9s2-.9,2-2-.9-2-2-2c-.8,0-1.5.5-1.8,1.1l-4.7-1c-.1,0-.3,0-.4.1s-.2.2-.2.3l-1.4,6.8c-3,.1-5.8,1-7.7,2.4-.5-.5-1.2-.8-2-.8-1.6,0-2.9,1.3-2.9,2.9,0,1.2.7,2.2,1.7,2.6,0,.3-.1.6-.1.9,0,4.4,5.1,7.9,11.4,7.9s11.4-3.6,11.4-7.9c0-.3,0-.6-.1-.9,1.1-.5,1.8-1.4,1.8-2.6Zm-19.6,2c0-1.1.9-2,2-2s2,.9,2,2-.9,2-2,2c-1.1.1-2-.9-2-2Zm11.4,5.4c-1.4,1.4-4.1,1.5-4.8,1.5-.8,0-3.4-.1-4.8-1.5-.2-.2-.2-.5,0-.7s.5-.2.7,0c.9.9,2.7,1.2,4.1,1.2s3.2-.3,4.1-1.2c.2-.2.5-.2.7,0,.2.2.2.5,0,.7Zm-.4-3.3c-1.1,0-2-.9-2-2s.9-2,2-2,2,.9,2,2c.1,1-.9,2-2,2Z"/><image class="cls-20" width="357" height="276" transform="translate(330.16 157.51) scale(0)" xlink:href="../../../../../Downloads/FD097FC2E8EA822D.png"/></svg>