<?xml version="1.0" encoding="UTF-8"?><svg id="Layer_1" xmlns="http://www.w3.org/2000/svg" viewBox="0 0 520 320"><defs><style>.cls-1{fill:#231f20;}.cls-1,.cls-2{stroke-width:0px;}.cls-2{fill:#ed1c24;}</style></defs><path class="cls-2" d="m67.98,178.21c-7.31,0-13.23-5.92-13.23-13.23s5.92-13.23,13.23-13.23v26.46Z"/><path class="cls-2" d="m147.8,178.21c7.31,0,13.23-5.92,13.23-13.23s-5.92-13.23-13.23-13.23v26.46Z"/><circle class="cls-2" cx="92.45" cy="164.98" r="4.98"/><circle class="cls-2" cx="107.89" cy="164.98" r="4.98"/><circle class="cls-2" cx="123.33" cy="164.98" r="4.98"/><path class="cls-2" d="m110.89,127.64v-.58c0-2.54,1.02-4.93,2.6-6.93.97-1.22,1.54-2.76,1.54-4.44,0-3.96-3.22-7.17-7.2-7.14-3.74.03-6.93,3.12-7.07,6.85-.08,1.84.55,3.54,1.63,4.84,1.71,2.06,2.49,4.73,2.5,7.4-18.9,1.53-33.82,17.41-33.82,36.7,0,8.82,3.12,16.93,8.31,23.29l-.53,3.06-2.06,11.77,11.22-4.1,3.22-1.19c5.01,2.56,10.67,4,16.66,4,20.3,0,36.83-16.53,36.83-36.83s-14.93-35.17-33.83-36.7Zm-3,61.76c-13.82,0-25.06-11.24-25.06-25.06s11.24-25.06,25.06-25.06,25.06,11.24,25.06,25.06-11.24,25.06-25.06,25.06Z"/><path class="cls-1" d="m175.69,182.28v-36.53h18.81c3.49,0,6.15.3,8,.9s3.33,1.71,4.46,3.33c1.13,1.62,1.69,3.59,1.69,5.92,0,2.03-.43,3.78-1.3,5.25s-2.05,2.66-3.56,3.58c-.96.58-2.29,1.06-3.96,1.45,1.34.45,2.32.9,2.94,1.35.42.3,1.02.94,1.81,1.92.79.98,1.32,1.74,1.58,2.27l5.47,10.58h-12.75l-6.03-11.16c-.76-1.45-1.45-2.38-2.04-2.82-.81-.56-1.74-.85-2.77-.85h-1v14.83h-11.34Zm11.34-21.73h4.76c.51,0,1.51-.17,2.99-.5.75-.15,1.36-.53,1.83-1.15.47-.61.71-1.32.71-2.12,0-1.18-.37-2.08-1.12-2.72s-2.15-.95-4.21-.95h-4.96v7.43Z"/><path class="cls-1" d="m242.66,171.56h-20.33c.18,1.63.62,2.84,1.32,3.64.98,1.15,2.26,1.72,3.84,1.72,1,0,1.94-.25,2.84-.75.55-.32,1.14-.87,1.77-1.67l9.99.92c-1.53,2.66-3.37,4.56-5.53,5.72-2.16,1.15-5.26,1.73-9.29,1.73-3.51,0-6.26-.49-8.27-1.48-2.01-.99-3.68-2.56-5-4.71-1.32-2.15-1.98-4.68-1.98-7.59,0-4.14,1.32-7.48,3.97-10.04s6.31-3.84,10.98-3.84c3.79,0,6.78.57,8.97,1.72,2.19,1.15,3.86,2.81,5.01,4.98s1.72,5.01,1.72,8.5v1.15Zm-10.32-4.86c-.2-1.96-.73-3.36-1.58-4.21-.86-.85-1.98-1.27-3.38-1.27-1.61,0-2.9.64-3.86,1.92-.61.8-1,1.99-1.17,3.56h9.99Z"/><path class="cls-1" d="m275.18,145.75v36.53h-9.49v-3.91c-1.33,1.66-2.54,2.78-3.64,3.36-1.46.76-3.09,1.15-4.88,1.15-3.6,0-6.36-1.37-8.26-4.11-1.9-2.74-2.85-6.07-2.85-9.99,0-4.38,1.05-7.74,3.15-10.07,2.1-2.33,4.77-3.49,8.01-3.49,1.58,0,3.01.27,4.3.8,1.29.53,2.43,1.33,3.43,2.39v-12.66h10.24Zm-10.17,23.22c0-2.08-.44-3.62-1.32-4.65s-1.99-1.53-3.34-1.53c-1.18,0-2.17.49-2.96,1.47-.8.98-1.2,2.62-1.2,4.93,0,2.16.41,3.74,1.23,4.75.82,1.01,1.84,1.51,3.05,1.51,1.3,0,2.38-.51,3.24-1.52.86-1.01,1.29-2.67,1.29-4.96Z"/><path class="cls-1" d="m282.18,145.75h16.77c3.31,0,5.98.45,8.01,1.35s3.72,2.18,5.05,3.86c1.33,1.68,2.29,3.63,2.89,5.85.6,2.23.9,4.58.9,7.08,0,3.9-.44,6.93-1.33,9.08-.89,2.15-2.12,3.95-3.7,5.41-1.58,1.45-3.27,2.42-5.08,2.9-2.47.67-4.72,1-6.73,1h-16.77v-36.53Zm11.29,8.27v19.96h2.77c2.36,0,4.04-.26,5.03-.79,1-.52,1.78-1.44,2.34-2.74.57-1.3.85-3.42.85-6.34,0-3.87-.63-6.52-1.89-7.95-1.26-1.43-3.36-2.14-6.28-2.14h-2.82Z"/><path class="cls-1" d="m321.42,145.75h10.14v6.9h-10.14v-6.9Zm0,10.07h10.14v26.46h-10.14v-26.46Z"/><path class="cls-1" d="m356.45,155.82h9.49v24.99l.03,1.17c0,1.66-.35,3.24-1.06,4.75-.71,1.5-1.64,2.72-2.82,3.65s-2.66,1.6-4.46,2.02c-1.8.42-3.87.62-6.19.62-5.32,0-8.97-.8-10.95-2.39-1.98-1.59-2.98-3.73-2.98-6.4,0-.33.02-.78.05-1.35l9.84,1.12c.25.91.63,1.54,1.15,1.89.75.51,1.69.77,2.82.77,1.46,0,2.55-.39,3.28-1.17.72-.78,1.08-2.14,1.08-4.09v-4.01c-1,1.18-1.99,2.04-2.99,2.57-1.56.83-3.25,1.25-5.06,1.25-3.54,0-6.4-1.54-8.57-4.63-1.54-2.19-2.32-5.09-2.32-8.7,0-4.12,1-7.26,2.99-9.42,1.99-2.16,4.6-3.24,7.82-3.24,2.06,0,3.76.35,5.09,1.05s2.59,1.85,3.75,3.46v-3.91Zm-9.54,12.83c0,1.91.41,3.33,1.22,4.25.81.92,1.88,1.38,3.21,1.38s2.32-.48,3.18-1.43,1.28-2.4,1.28-4.32-.45-3.4-1.35-4.42c-.9-1.02-1.99-1.53-3.29-1.53s-2.33.47-3.1,1.41-1.16,2.5-1.16,4.67Z"/><path class="cls-1" d="m401.45,171.56h-20.33c.18,1.63.62,2.84,1.32,3.64.98,1.15,2.26,1.72,3.84,1.72,1,0,1.94-.25,2.84-.75.55-.32,1.14-.87,1.77-1.67l9.99.92c-1.53,2.66-3.37,4.56-5.53,5.72-2.16,1.15-5.26,1.73-9.29,1.73-3.5,0-6.26-.49-8.27-1.48s-3.67-2.56-5-4.71c-1.32-2.15-1.98-4.68-1.98-7.59,0-4.14,1.32-7.48,3.97-10.04,2.65-2.56,6.31-3.84,10.98-3.84,3.79,0,6.78.57,8.97,1.72,2.19,1.15,3.86,2.81,5.01,4.98s1.72,5.01,1.72,8.5v1.15Zm-10.32-4.86c-.2-1.96-.73-3.36-1.58-4.21-.86-.85-1.98-1.27-3.38-1.27-1.61,0-2.9.64-3.86,1.92-.62.8-1.01,1.99-1.17,3.56h9.99Z"/><path class="cls-1" d="m404.32,174.93l10.07-.95c.42,1.2,1,2.05,1.74,2.57s1.74.77,2.99.77c1.36,0,2.42-.29,3.16-.87.58-.43.87-.97.87-1.62,0-.73-.38-1.29-1.15-1.69-.55-.28-2-.63-4.36-1.04-3.52-.61-5.97-1.18-7.34-1.71-1.37-.52-2.52-1.41-3.46-2.65-.94-1.24-1.41-2.66-1.41-4.26,0-1.74.51-3.24,1.52-4.51,1.01-1.26,2.41-2.2,4.19-2.82,1.78-.62,4.16-.93,7.15-.93,3.16,0,5.49.24,6.99.72,1.5.48,2.76,1.23,3.76,2.24,1,1.01,1.84,2.38,2.5,4.11l-9.62.95c-.25-.85-.67-1.47-1.25-1.87-.8-.53-1.76-.8-2.89-.8s-1.98.2-2.5.61c-.52.41-.78.9-.78,1.48,0,.65.33,1.14,1,1.47s2.11.63,4.34.9c3.37.38,5.88.91,7.52,1.59s2.9,1.65,3.77,2.91c.87,1.26,1.31,2.65,1.31,4.16s-.46,3.01-1.38,4.46-2.38,2.59-4.36,3.45c-1.99.85-4.69,1.28-8.11,1.28-4.83,0-8.28-.69-10.33-2.07s-3.37-3.34-3.95-5.88Z"/><path class="cls-1" d="m449.52,145.75v10.07h5.58v7.42h-5.58v9.38c0,1.13.11,1.87.32,2.24.33.56.91.85,1.74.85.75,0,1.79-.21,3.14-.65l.75,7c-2.51.55-4.85.82-7.03.82-2.53,0-4.39-.32-5.58-.97-1.2-.65-2.08-1.63-2.65-2.95s-.86-3.46-.86-6.41v-9.31h-3.74v-7.42h3.74v-4.86l10.17-5.21Z"/></svg>